# xmcd CD database file generated by OrangeCD 5.2
#
# Track frame offsets:
#	150
#	15375
#	38850
#	58136
#	80008
#	100212
#	124710
#	139878
#	162794
#	193693
#	216343
#	234762
#	251458
#	266251
#
# Disc length: 4016 seconds
#
# Revision: 0
# Processed by: cddbd v1.5.1PL2 Copyright (c) Steve Scherf et al.
# Submitted via: OrangeCD 5.2
#
DISCID=b90fae0e
DTITLE=Boogie Boys - Revelation
DYEAR=1900
DGENRE=Boogie-woogie
TTITLE0=Boogie-woogie ca³¹ noc
TTITLE1=Burza
TTITLE2=Fortepian i Ja
TTITLE3=Manoir de Sens Boogie
TTITLE4=Fusion Boogie
TTITLE5=Baby What You Want From Me To Do
TTITLE6=My Baby
TTITLE7=Sunday Morning
TTITLE8=Sz³a dzieweczka do laseczka (drum solo)
TTITLE9=Ain't Got No Money
TTITLE10=Oh Happy Day [bonus]
TTITLE11=I Can't Help Falling In Love [bonus]
TTITLE12=Boogie-woogie ca³¹ noc [bonus]
TTITLE13=Sz³a dzieweczka do laseczka [bonus]
EXTD=
EXTT0=
EXTT1=
EXTT2=
EXTT3=
EXTT4=
EXTT5=
EXTT6=
EXTT7=
EXTT8=
EXTT9=
EXTT10=
EXTT11=
EXTT12=
EXTT13=
PLAYORDER=
